<svg xmlns="http://www.w3.org/2000/svg" width="32" height="32" fill="none"><path fill="#000" d="M3 20.01v-7.53c0-.545.127-1.084.37-1.57a3.4 3.4 0 0 1 1.025-1.223l9.478-6.995A3.53 3.53 0 0 1 15.965 2h.03c.779 0 1.532.25 2.16.713l9.45 6.974c.432.318.783.738 1.026 1.223.242.486.369 1.024.369 1.57v6.039c0 .546-.127 1.084-.37 1.57a3.4 3.4 0 0 1-1.025 1.223l-9.47 6.982A3.6 3.6 0 0 1 16 29a3.6 3.6 0 0 1-2.143-.707l-3.233-2.383v-9.292q0-.043.022-.079a.15.15 0 0 1 .058-.055.14.14 0 0 1 .152.012l5.059 3.733a.14.14 0 0 0 .17 0l6.243-4.607a.15.15 0 0 0 .061-.122.15.15 0 0 0-.06-.122l-6.244-4.607a.14.14 0 0 0-.17 0L3.232 20.13a.144.144 0 0 1-.21-.044A.15.15 0 0 1 3 20.01"/></svg>
